<?xml version="1.0" encoding="UTF-8"?>
<svg width="128" height="128" viewBox="0 0 1024 1024" version="1.1" xmlns="http://www.w3.org/2000/svg">
    <!-- 渐变定义 -->
    <defs>
        <linearGradient id="bgGradient" x1="0%" y1="0%" x2="100%" y2="100%">
            <stop offset="0%" style="stop-color:#1565C0"/>
            <stop offset="100%" style="stop-color:#1976D2"/>
        </linearGradient>
    </defs>

    <!-- 背景圆形 -->
    <circle cx="512" cy="512" r="480" fill="url(#bgGradient)"/>

    <!-- 咖啡杯图标 - 使用transform缩放和移动来调整大小和位置 -->
    <g transform="translate(153.6, 153.6) scale(0.7)">
        <path d="M819.2 337.92H143.36a30.72 30.72 0 0 0-30.72 30.72v184.32a369.78688 369.78688 0 0 0 124.928 276.48H143.36a30.72 30.72 0 1 0 0 61.44H819.2a30.72 30.72 0 1 0 0-61.44h-94.208a370.8928 370.8928 0 0 0 103.6288-153.92768 153.6 153.6 0 0 0 144.1792-153.27232V491.52A153.6 153.6 0 0 0 819.2 337.92z m92.16 184.32a92.16 92.16 0 0 1-66.06848 88.30976c3.072-19.0464 4.58752-38.2976 4.62848-57.58976V404.6848a92.16 92.16 0 0 1 61.44 86.8352v30.72zM450.56 245.76V122.88a30.72 30.72 0 1 1 61.44 0v122.88A30.72 30.72 0 1 1 450.56 245.76z m122.88 0V122.88a30.72 30.72 0 1 1 61.44 0v122.88A30.72 30.72 0 1 1 573.44 245.76zM327.68 245.76V122.88a30.72 30.72 0 0 1 61.44 0v122.88A30.72 30.72 0 0 1 327.68 245.76z" 
              fill="#ffffff"/>
    </g>
</svg> 